# xmcd
#
# Track frame offsets:
#	183
#	15403
#	29138
#	41025
#	54008
#	71110
#	81538
#	95810
#	108530
#	121618
#	140528
#	152968
#	166215
#	175550
#	194370
#
# Disc length: 2715 seconds
#
# Revision: 2
# Processed by: cddbd v1.5.1PL2 Copyright (c) Steve Scherf et al.
# Submitted via: audiograbber 1.83.01
#
DISCID=cb0a990f
DTITLE=Various Artist - Country Ballads Disk 2
DYEAR=1900
DGENRE=Country
TTITLE0=Olivia Newton John - If We Only Have Love
TTITLE1=Willie Nelson - Funny How Time Slips Away
TTITLE2=Billy Joe Spears - Misty Blue
TTITLE3=Dr Hook - A Little Bit More
TTITLE4=Tanya Tucker - Love Me Like You Used To
TTITLE5=Glen Cambell - Reason To Believe
TTITLE6=Tennessee Ernie Ford - Give Me Yor Word
TTITLE7=Willie Nelson - Am I Blue
TTITLE8=Crystal Gayle - Dreaming My Dreams With You
TTITLE9=Kenny Rogers - She Believes In Me
TTITLE10=Faron Young - Sweet Dreams
TTITLE11=Wanda Jackson - Reuben James
TTITLE12=Slim Whitman - My Blue Heaven
TTITLE13=Juice Newton - Angel Of The Morning
TTITLE14=Bobbie Gentry - Let It Be Me
EXTD=
EXTT0=
EXTT1=
EXTT2=
EXTT3=
EXTT4=
EXTT5=
EXTT6=
EXTT7=
EXTT8=
EXTT9=
EXTT10=
EXTT11=
EXTT12=
EXTT13=
EXTT14=
PLAYORDER=
